<?xml version="1.0" encoding="utf-8"?>
<!-- Generator: Adobe Illustrator 24.3.0, SVG Export Plug-In . SVG Version: 6.00 Build 0)  -->
<svg version="1.1" id="Layer_1" xmlns="http://www.w3.org/2000/svg" xmlns:xlink="http://www.w3.org/1999/xlink" x="0px" y="0px"
	 viewBox="0 0 841.9 595.3" style="enable-background:new 0 0 841.9 595.3;" xml:space="preserve">
<style type="text/css">
	.st0{fill:#9D9D9C;}
	.st1{fill:#42B59C;}
	.st2{fill:#E7E8EA;}
	.st3{fill:url(#SVGID_1_);}
</style>
<g>
	<g>
		<g>
			<path class="st0" d="M413.8,334.5c0-20.5,16.1-35.7,36.4-35.7c15.1,0,28.6,8.1,33.5,21.4c0.3,0.8,0.1,1.6-1.1,1.9l-7,1.5
				c-1.3,0.3-1.7-0.6-2-1.4c-4-8.7-12-14.5-23.3-14.5c-15.2,0-26.1,11.6-26.1,26.7c0,15.1,10.9,26.7,26.1,26.7
				c11.2,0,19.2-5.8,23.3-14.5c0.3-0.8,0.7-1.7,2-1.4l7,1.5c1.2,0.3,1.4,1.1,1.1,1.9c-4.9,13.4-18.4,21.4-33.5,21.4
				C429.9,370.2,413.8,355,413.8,334.5z"/>
			<path class="st0" d="M512.8,322.2c0.9,0,1.9,0.5,1.9,2v5.8c0,1.5-1.1,2-1.9,2h-2c-6.9,0-11.6,3.7-11.6,13.7v21.6
				c0,1.1-0.9,1.7-1.8,1.7h-6.1c-1.1,0-1.8-0.7-1.8-1.8v-42.8c0-1.1,0.7-1.9,1.8-1.9h5.7c0.9,0,1.8,0.7,1.8,1.8v5.7
				c2-4.2,6.5-7.8,12.5-7.8H512.8z"/>
			<path class="st0" d="M565.7,344.6v1.8c0,1.1-0.4,1.9-1.9,1.9h-37c0.8,8.1,7.1,13.9,15.3,13.9c6.2,0,9.9-2.5,13-5.9
				c0.8-0.9,1.6-1,2.5-0.4l4.5,2.9c1.1,0.7,0.9,1.8,0.4,2.5c-4,5.4-10.8,9.1-20.6,9.1c-14.6,0-25.1-10.5-25.1-24.4
				c0-13.8,10.5-24.7,24.8-24.7C555.7,321.2,565.7,331.5,565.7,344.6z M556.1,341.8c-1.1-8.2-7.1-12.8-14.5-12.8
				c-7.7,0-13.5,5.3-14.7,12.8H556.1z"/>
			<path class="st0" d="M593,321.2c7.6,0,13.6,3.7,16.3,8.8v-5.5c0-1.1,0.8-1.9,1.9-1.9h6c1.1,0,1.8,0.8,1.8,1.9v42.8
				c0,1.1-0.7,1.8-1.8,1.8h-6c-1.1,0-1.9-0.7-1.9-1.8v-5.6c-2.7,5-8.7,8.7-16.4,8.7c-12.9,0-24-9.9-24-24.6
				C568.9,331.1,580.1,321.2,593,321.2z M594.1,361.6c8.8,0,15.3-7.1,15.3-15.8c0-8.8-6.5-15.7-15.3-15.7c-8.9,0-15.3,6.9-15.3,15.7
				C578.9,354.5,585.2,361.6,594.1,361.6z"/>
			<path class="st0" d="M632.5,330.5h-7.1c-0.9,0-1.7-0.8-1.7-1.9v-4.2c0-1.1,0.8-1.9,1.7-1.9h7.1v-14.1c0-1.3,0.6-1.9,1.9-1.9h6
				c1.1,0,1.8,0.8,1.8,1.9v14.1h14.7c1.1,0,1.8,0.8,1.8,1.9v4.2c0,1.1-0.7,1.9-1.8,1.9h-14.7v23.3c0,5.1,3.3,7.3,6.7,7.3
				c1.5,0,3.3-0.4,5.3-1.5c1.4-0.9,2.5-0.8,3.3,0.3l2.1,3.2c0.7,1.1,0.6,2-0.3,2.8c-2.9,2.6-7,3.8-12,3.8c-7.4,0-14.8-4.1-14.8-14.1
				V330.5z"/>
			<path class="st0" d="M710.6,344.6v1.8c0,1.1-0.4,1.9-1.9,1.9h-37c0.8,8.1,7.1,13.9,15.3,13.9c6.2,0,9.9-2.5,13-5.9
				c0.8-0.9,1.6-1,2.5-0.4l4.5,2.9c1.1,0.7,0.9,1.8,0.4,2.5c-4,5.4-10.8,9.1-20.6,9.1c-14.6,0-25.1-10.5-25.1-24.4
				c0-13.8,10.5-24.7,24.8-24.7C700.5,321.2,710.6,331.5,710.6,344.6z M700.9,341.8c-1.1-8.2-7.1-12.8-14.5-12.8
				c-7.7,0-13.5,5.3-14.7,12.8H700.9z"/>
		</g>
		<g>
			<path class="st1" d="M409.2,235.8c0-28.1,23.5-50.6,53.8-50.6c22.1,0,40.9,11.4,48.2,29.8c0.4,1,1.1,2.9-1.6,3.6l-20,5.3
				c-2.7,0.7-3.3-1.1-3.7-1.8c-4.4-7.6-11.4-13.7-22.8-13.7c-15.8,0-27.1,12.3-27.1,27.5c0,15.1,11.3,27.5,27.1,27.5
				c11.4,0,18.4-6.1,22.8-13.7c0.4-0.7,1-2.5,3.7-1.8l20,5.3c2.7,0.7,2,2.6,1.6,3.6c-7.3,18.4-26.1,29.8-48.2,29.8
				C432.7,286.4,409.2,263.9,409.2,235.8z"/>
			<path class="st1" d="M550,213.6c21.7,0,39.1,16.2,39.1,36.6c0,20.1-17.4,36.2-39.1,36.2s-39.1-16.1-39.1-36.2
				C510.9,229.8,528.3,213.6,550,213.6z M550,264c8,0,14.3-6.2,14.3-14c0-7.8-6.1-14.1-14.3-14.1c-7.8,0-14.3,6.4-14.3,14.1
				C535.7,257.8,542,264,550,264z"/>
			<path class="st1" d="M634.3,214.4c1.6,0,3.9,0.4,3.9,4.2v17.1c0,3.7-2.9,4.3-4.4,4.3h-4.1c-8.4,0-11.7,3.7-11.7,11.6v29.8
				c0,1.7-1.7,2.9-3.4,2.9h-18c-1.9,0-3.3-1.4-3.3-3.2v-62.3c0-1.8,1.4-3.2,3.3-3.2h17c1.7,0,3.4,1.2,3.4,2.9v3.9
				c4.4-6,9.8-8,15.5-8H634.3z"/>
			<path class="st1" d="M713.3,247.8v4.3c0,2.1-0.7,3.6-4,3.6h-44.9c1,6.7,6.8,10.4,13,10.4c5.7,0,9.3-1.9,12.6-5.3
				c1-1,2.1-1.8,3.9-0.8l14.6,8.6c1.9,1.1,1.3,3.3,0.6,4.3c-5.6,7.6-16,13.4-32,13.4c-22.8,0-37.9-15.9-37.9-35.9
				c0-20.7,15.7-36.9,37.9-36.9C700.2,213.6,713.3,231,713.3,247.8z M689.1,241.2c-2.1-6.2-7.4-8.6-12-8.6c-5,0-10,2.9-12.1,8.6
				H689.1z"/>
		</g>
		<path class="st2" d="M272.9,443.6c-7.5,0-15,0.6-22.5,0.4c-13.7-0.2-27.4-0.2-41.1-0.6c-12-0.3-24-1-35.9-2
			c-7.5-0.7-15.1-1.2-22.5-3.2c-1.2-0.3-2.8-0.5-2.8-1.9c-0.1-1.6,1.7-1.8,2.9-2.1c6.4-1.5,13-2.1,19.5-2.8
			c12.9-1.3,25.9-1.3,38.8-2.5c0.9-0.1,1.8,0,2.7,0c24.4,0,48.9-0.2,73.3,0.1c13,0.2,26,1.1,38.9,2c6.7,0.5,13.3,1.6,19.9,2.6
			c1.9,0.3,5,0.3,5,2.7c0,2.2-3.1,2-4.9,2.4c-8.2,1.7-16.5,2.3-24.8,2.9C303.9,442.8,288.4,443.4,272.9,443.6z"/>
		<linearGradient id="SVGID_1_" gradientUnits="userSpaceOnUse" x1="158.6694" y1="297.88" x2="403.0628" y2="208.656">
			<stop  offset="8.930330e-02" style="stop-color:#85BE4F"/>
			<stop  offset="1" style="stop-color:#42B59C"/>
		</linearGradient>
		<path class="st3" d="M372.2,260.5c0-0.4,0.1-0.9,0.1-1.3c-1.4-23.2-8.7-44.5-21.5-63.9c-14.4-21.9-33.6-38.2-57.6-48.7
			c-12.3-5.5-25-9.2-38.5-10.3c-10-1.6-20-1.7-29.9,0l0,0c-6.6,0.2-13,1.5-19.2,3.5c-7.4,1.5-14.5,4.2-21.3,7.5
			c-10,4.4-19.5,9.9-27.8,17.1c-9.2,7-17.2,15.2-23.9,24.6c-8.5,10.6-14.6,22.6-18.9,35.4c-3,8.9,1.9,18.5,10.5,22
			c8.3,3.3,18.9-0.2,22.5-8.1c2.7-5.8,4.9-11.8,7.8-17.5c5.1-8.1,10.7-15.8,17.7-22.4c1.7-1.6,3.2-3.2,4.8-4.8
			c8.4-6,17.2-11.5,26.6-15.8c7.5-2,14.8-4.5,22.5-5.5c7.1-0.8,14.2-0.7,21.3-0.6c12.8,1.4,24.9,5,36.5,10.5
			c0.8,0.5,1.7,1.1,2.5,1.6c21,11.8,35.5,29,44.2,51.4c2.1,5.5,2.4,10.9,0,16.3l0,0c-5,8.1-12.1,11.2-21.4,9.1
			c-6.2-2.6-9.9-7.1-12.2-13.5c-5-13.7-14.1-24.1-26.6-31.5c-9.7-5.7-20.2-8.6-31.5-8.2c-13.9,0-26.4,4.4-37.3,13
			c-9.7,7.6-16.7,17.1-20.4,29c-5.1,14.2-4.1,28.3,1.2,42.2c8.7,22.5,32,38.7,55.1,38.5c11.7,0.6,22.5-2.5,32.6-8.3
			c1.3-0.8,2.7-1.4,4-2.3c9.9-6.5,16.8-15.6,21.9-26.2c0.6-0.5,1.1-1,1.7-1.6c8.7-8.7,22.3-7,28.4,3.7c3.5,6.1,2.7,12.2-0.3,18.3
			c-2.7,4.2-5.3,8.4-8,12.6c-8.4,11-18.7,20-30.6,27.2c-13.7,7.2-28.2,11.6-43.8,12.3c-17.8,0.5-34.5-3.2-50.2-11.6
			c-7.5-4-14.1-9.3-20.6-14.7c-0.6-1.2-1.6-2.1-2.7-2.8c-7.5-8.2-13.9-17.2-18.7-27.2c-4.3-9-15.4-12.6-24.3-7.9
			c-9,4.7-12.3,15.2-7.6,24.8c9.7,19.9,23.3,36.5,41.1,49.5c15.2,11.2,32,19.1,50.6,22.8c18.1,4.2,36.3,4.4,54.4,0.6
			c0.5-0.1,1.1-0.1,1.6-0.2c14.5-3.2,28.3-8.3,40.9-16.3c11.6-6.6,21.8-15.1,30.6-25.2c4.1-4,7.5-8.5,10.6-13.3
			c3-3.8,5.4-8.1,7.4-12.5c0.3-0.3,0.7-0.5,0.9-0.9c4.7-9.1,8.7-18.4,10.9-28.4c2.3-7.1,3.4-14.4,4-21.7
			C372.7,273.9,373.5,267.2,372.2,260.5z"/>
		<g>
			<path class="st0" d="M424.6,435c-0.3,0-0.5-0.1-0.6-0.4l-6.2-12.6v15.4c0,0.2-0.2,0.4-0.4,0.4h-1c-0.2,0-0.4-0.2-0.4-0.4v-17
				c0-0.2,0.2-0.4,0.4-0.4h2c0.3,0,0.5,0.1,0.6,0.4l6,12.3l6-12.3c0.1-0.3,0.4-0.4,0.6-0.4h1.9c0.2,0,0.4,0.2,0.4,0.4v17
				c0,0.2-0.2,0.4-0.4,0.4h-0.9c-0.3,0-0.4-0.2-0.4-0.4v-15.4l-6.3,12.6c-0.1,0.3-0.3,0.4-0.6,0.4H424.6z"/>
			<path class="st0" d="M443.1,425.7c2,0,3.7,1.1,4.4,2.6v-1.8c0-0.2,0.2-0.4,0.4-0.4h0.9c0.2,0,0.4,0.2,0.4,0.4v11
				c0,0.2-0.2,0.4-0.4,0.4h-0.9c-0.2,0-0.4-0.2-0.4-0.4v-1.8c-0.8,1.5-2.4,2.6-4.4,2.6c-3.3,0-6-2.6-6-6.3
				C437.1,428.3,439.8,425.7,443.1,425.7z M443.2,436.6c2.5,0,4.3-2,4.3-4.6c0-2.6-1.8-4.6-4.3-4.6c-2.5,0-4.3,2-4.3,4.6
				C438.9,434.5,440.7,436.6,443.2,436.6z"/>
			<path class="st0" d="M462.1,431.3c0-2.5-1.3-4-3.8-4c-2.4,0-4,1.6-4,4v6.2c0,0.2-0.2,0.4-0.4,0.4h-0.9c-0.2,0-0.4-0.2-0.4-0.4
				v-11c0-0.2,0.2-0.4,0.4-0.4h0.9c0.2,0,0.4,0.2,0.4,0.4v1.6c0.7-1.4,2.3-2.4,4.4-2.4c3.2,0,5.1,2.1,5.1,5.2v6.6
				c0,0.2-0.2,0.4-0.4,0.4h-0.9c-0.2,0-0.4-0.2-0.4-0.4V431.3z"/>
			<path class="st0" d="M472.2,425.7c2,0,3.7,1.1,4.4,2.6v-1.8c0-0.2,0.2-0.4,0.4-0.4h0.9c0.2,0,0.4,0.2,0.4,0.4v11
				c0,0.2-0.2,0.4-0.4,0.4h-0.9c-0.2,0-0.4-0.2-0.4-0.4v-1.8c-0.8,1.5-2.4,2.6-4.4,2.6c-3.3,0-6-2.6-6-6.3
				C466.2,428.3,469,425.7,472.2,425.7z M472.4,436.6c2.5,0,4.3-2,4.3-4.6c0-2.6-1.8-4.6-4.3-4.6c-2.5,0-4.3,2-4.3,4.6
				C468.1,434.5,469.8,436.6,472.4,436.6z"/>
			<path class="st0" d="M491.4,438v-2.3c-0.7,1.5-2.4,2.5-4.4,2.5c-3.3,0-6-2.5-6-6.2c0-3.6,2.7-6.2,5.9-6.2c2,0,3.7,1.1,4.5,2.6
				v-1.8c0-0.2,0.2-0.4,0.4-0.4h0.9c0.2,0,0.4,0.2,0.4,0.4V438c0,3.2-2.1,5.5-6.1,5.5c-3.2,0-5.2-1.6-5.7-3.8
				c-0.1-0.2,0.1-0.4,0.3-0.4l0.9-0.3c0.3-0.1,0.5,0.1,0.5,0.3c0.3,1.4,1.6,2.7,4.1,2.7C490,442,491.4,440.3,491.4,438z
				 M487.1,436.6c2.5,0,4.3-2,4.3-4.6c0-2.6-1.8-4.6-4.3-4.6c-2.5,0-4.3,2-4.3,4.6C482.8,434.5,484.5,436.6,487.1,436.6z"/>
			<path class="st0" d="M507.7,431.7v0.3c0,0.2-0.1,0.4-0.4,0.4h-9.8c0.2,2.4,1.9,4.2,4.4,4.2c1.7,0,2.8-0.8,3.6-1.7
				c0.2-0.2,0.4-0.3,0.6-0.1l0.7,0.5c0.2,0.2,0.2,0.4,0.1,0.5c-1,1.5-2.8,2.4-5.1,2.4c-3.6,0-6.1-2.7-6.1-6.2c0-3.5,2.6-6.3,6.1-6.3
				C505.1,425.7,507.7,428.1,507.7,431.7z M506,431.1c-0.3-2.4-2-3.9-4.2-3.9c-2.3,0-3.9,1.7-4.2,3.9H506z"/>
			<path class="st0" d="M511.8,437.5c0,0.2-0.2,0.4-0.4,0.4h-0.9c-0.2,0-0.4-0.2-0.4-0.4v-11c0-0.2,0.2-0.4,0.4-0.4h0.9
				c0.2,0,0.4,0.2,0.4,0.4v1.6c0.7-1.4,2.2-2.3,4.2-2.3c2.1,0,3.6,1.1,4.2,2.7c0.9-1.8,2.6-2.7,4.5-2.7c3.2,0,4.9,2.2,4.9,5.1v6.6
				c0,0.2-0.2,0.4-0.4,0.4h-0.9c-0.2,0-0.4-0.2-0.4-0.4v-6.3c0-2.2-1.1-3.9-3.5-3.9c-2.3,0-3.7,1.6-3.7,3.9v6.3
				c0,0.2-0.2,0.4-0.4,0.4h-0.9c-0.2,0-0.4-0.2-0.4-0.4v-6.3c0-2.2-1.1-3.9-3.4-3.9c-2.3,0-3.7,1.6-3.7,3.9V437.5z"/>
			<path class="st0" d="M544,431.7v0.3c0,0.2-0.1,0.4-0.4,0.4h-9.8c0.2,2.4,1.9,4.2,4.4,4.2c1.7,0,2.8-0.8,3.6-1.7
				c0.2-0.2,0.4-0.3,0.6-0.1l0.7,0.5c0.2,0.2,0.2,0.4,0.1,0.5c-1,1.5-2.8,2.4-5.1,2.4c-3.6,0-6.1-2.7-6.1-6.2c0-3.5,2.6-6.3,6.1-6.3
				C541.5,425.7,544,428.1,544,431.7z M542.3,431.1c-0.3-2.4-2-3.9-4.2-3.9c-2.3,0-3.9,1.7-4.2,3.9H542.3z"/>
			<path class="st0" d="M555.9,431.3c0-2.5-1.3-4-3.8-4c-2.4,0-4,1.6-4,4v6.2c0,0.2-0.2,0.4-0.4,0.4h-0.9c-0.2,0-0.4-0.2-0.4-0.4
				v-11c0-0.2,0.2-0.4,0.4-0.4h0.9c0.2,0,0.4,0.2,0.4,0.4v1.6c0.7-1.4,2.3-2.4,4.4-2.4c3.2,0,5.1,2.1,5.1,5.2v6.6
				c0,0.2-0.2,0.4-0.4,0.4h-0.9c-0.2,0-0.4-0.2-0.4-0.4V431.3z"/>
			<path class="st0" d="M561.4,427.5h-1.8c-0.2,0-0.4-0.2-0.4-0.4v-0.6c0-0.2,0.2-0.4,0.4-0.4h1.8v-3.9c0-0.2,0.2-0.4,0.4-0.4h0.9
				c0.2,0,0.4,0.2,0.4,0.4v3.9h3.8c0.2,0,0.4,0.2,0.4,0.4v0.6c0,0.2-0.2,0.4-0.4,0.4h-3.8v6.8c0,1.4,0.8,2.1,1.9,2.1
				c0.4,0,0.9-0.1,1.4-0.4c0.3-0.2,0.6-0.2,0.7,0.1l0.3,0.5c0.2,0.2,0.1,0.5-0.1,0.6c-0.7,0.6-1.6,0.8-2.7,0.8c-1.7,0-3.4-1-3.4-3.5
				V427.5z"/>
			<path class="st0" d="M575,429c0-5.3,4.1-9.3,9.1-9.3c3.8,0,7.1,2.1,8.4,5.6c0.1,0.2,0,0.4-0.3,0.4l-1.1,0.2
				c-0.3,0-0.4-0.1-0.5-0.4c-1.1-2.6-3.4-4.2-6.5-4.2c-4.2,0-7.2,3.3-7.2,7.6c0,4.3,3,7.6,7.2,7.6c3.1,0,5.4-1.6,6.5-4.2
				c0.1-0.2,0.2-0.4,0.5-0.4l1.1,0.2c0.3,0,0.4,0.3,0.3,0.4c-1.3,3.5-4.6,5.6-8.4,5.6C579,438.2,575,434.3,575,429z"/>
			<path class="st0" d="M600.1,425.7c3.4,0,6.1,2.7,6.1,6.2c0,3.6-2.7,6.3-6.1,6.3c-3.4,0-6.1-2.7-6.1-6.3
				C593.9,428.4,596.7,425.7,600.1,425.7z M600.1,436.6c2.5,0,4.3-2,4.3-4.6c0-2.6-1.8-4.6-4.3-4.6c-2.6,0-4.3,2-4.3,4.6
				C595.7,434.5,597.5,436.6,600.1,436.6z"/>
			<path class="st0" d="M618.2,431.3c0-2.5-1.3-4-3.8-4c-2.4,0-4,1.6-4,4v6.2c0,0.2-0.2,0.4-0.4,0.4h-0.9c-0.2,0-0.4-0.2-0.4-0.4
				v-11c0-0.2,0.2-0.4,0.4-0.4h0.9c0.2,0,0.4,0.2,0.4,0.4v1.6c0.7-1.4,2.3-2.4,4.4-2.4c3.2,0,5.1,2.1,5.1,5.2v6.6
				c0,0.2-0.2,0.4-0.4,0.4h-0.9c-0.2,0-0.4-0.2-0.4-0.4V431.3z"/>
			<path class="st0" d="M631.4,427.2c0.2,0.2,0.2,0.5,0,0.7l-0.4,0.4c-0.2,0.2-0.5,0.2-0.7,0c-1-0.7-2.1-1.1-3.3-1.1
				c-1.7,0-2.7,0.9-2.7,1.9c0,0.9,0.6,1.4,2,1.7l2.2,0.4c2.4,0.5,3.5,1.4,3.5,3.4c0,1.7-1.5,3.6-4.8,3.6c-2.1,0-3.7-0.8-4.7-1.7
				c-0.4-0.4-0.4-0.7-0.1-0.9l0.4-0.4c0.3-0.2,0.5-0.1,0.7,0.1c1,0.9,2.1,1.5,3.7,1.5c1.9,0,3-1,3-2c0-1.1-0.8-1.7-2.4-2l-2.1-0.4
				c-2.1-0.4-3.3-1.4-3.3-3.2c0-2.1,2-3.4,4.6-3.4C629,425.7,630.6,426.3,631.4,427.2z"/>
			<path class="st0" d="M636.1,432.8c0,2.4,1.3,3.9,3.7,3.9c2.4,0,3.9-1.6,3.9-3.9v-6.3c0-0.2,0.2-0.4,0.4-0.4h0.9
				c0.2,0,0.4,0.2,0.4,0.4v11c0,0.2-0.2,0.4-0.4,0.4h-0.9c-0.2,0-0.4-0.2-0.4-0.4v-1.7c-0.7,1.4-2.2,2.4-4.3,2.4c-3.1,0-5-2.1-5-5.1
				v-6.6c0-0.2,0.2-0.4,0.4-0.4h0.9c0.2,0,0.4,0.2,0.4,0.4V432.8z"/>
			<path class="st0" d="M651.6,437.9c-1.7,0-2.9-0.8-2.9-2.9v-14.6c0-0.2,0.2-0.4,0.4-0.4h0.9c0.2,0,0.4,0.2,0.4,0.4v14.4
				c0,1,0.4,1.6,1.5,1.6h0.6c0.2,0,0.4,0.2,0.4,0.4v0.6c0,0.3-0.3,0.5-0.5,0.5H651.6z"/>
			<path class="st0" d="M655.4,427.5h-1.8c-0.2,0-0.4-0.2-0.4-0.4v-0.6c0-0.2,0.2-0.4,0.4-0.4h1.8v-3.9c0-0.2,0.2-0.4,0.4-0.4h0.9
				c0.2,0,0.4,0.2,0.4,0.4v3.9h3.8c0.2,0,0.4,0.2,0.4,0.4v0.6c0,0.2-0.2,0.4-0.4,0.4h-3.8v6.8c0,1.4,0.8,2.1,1.9,2.1
				c0.4,0,0.9-0.1,1.4-0.4c0.3-0.2,0.6-0.2,0.7,0.1l0.3,0.5c0.2,0.2,0.1,0.5-0.1,0.6c-0.7,0.6-1.6,0.8-2.7,0.8c-1.7,0-3.4-1-3.4-3.5
				V427.5z"/>
			<path class="st0" d="M668.5,425.7c2,0,3.7,1.1,4.4,2.6v-1.8c0-0.2,0.2-0.4,0.4-0.4h0.9c0.2,0,0.4,0.2,0.4,0.4v11
				c0,0.2-0.2,0.4-0.4,0.4h-0.9c-0.2,0-0.4-0.2-0.4-0.4v-1.8c-0.8,1.5-2.4,2.6-4.4,2.6c-3.3,0-6-2.6-6-6.3
				C662.6,428.3,665.3,425.7,668.5,425.7z M668.7,436.6c2.5,0,4.3-2,4.3-4.6c0-2.6-1.8-4.6-4.3-4.6c-2.5,0-4.3,2-4.3,4.6
				C664.4,434.5,666.2,436.6,668.7,436.6z"/>
			<path class="st0" d="M687.5,431.3c0-2.5-1.3-4-3.8-4c-2.4,0-4,1.6-4,4v6.2c0,0.2-0.2,0.4-0.4,0.4h-0.9c-0.2,0-0.4-0.2-0.4-0.4
				v-11c0-0.2,0.2-0.4,0.4-0.4h0.9c0.2,0,0.4,0.2,0.4,0.4v1.6c0.7-1.4,2.3-2.4,4.4-2.4c3.2,0,5.1,2.1,5.1,5.2v6.6
				c0,0.2-0.2,0.4-0.4,0.4H688c-0.2,0-0.4-0.2-0.4-0.4V431.3z"/>
			<path class="st0" d="M693.1,427.5h-1.8c-0.2,0-0.4-0.2-0.4-0.4v-0.6c0-0.2,0.2-0.4,0.4-0.4h1.8v-3.9c0-0.2,0.2-0.4,0.4-0.4h0.9
				c0.2,0,0.4,0.2,0.4,0.4v3.9h3.8c0.2,0,0.4,0.2,0.4,0.4v0.6c0,0.2-0.2,0.4-0.4,0.4h-3.8v6.8c0,1.4,0.8,2.1,1.9,2.1
				c0.4,0,0.9-0.1,1.4-0.4c0.3-0.2,0.6-0.2,0.7,0.1l0.3,0.5c0.2,0.2,0.1,0.5-0.1,0.6c-0.7,0.6-1.6,0.8-2.7,0.8c-1.7,0-3.4-1-3.4-3.5
				V427.5z"/>
			<path class="st0" d="M709.6,427.2c0.2,0.2,0.2,0.5,0,0.7l-0.4,0.4c-0.2,0.2-0.5,0.2-0.7,0c-1-0.7-2.1-1.1-3.3-1.1
				c-1.7,0-2.7,0.9-2.7,1.9c0,0.9,0.6,1.4,2,1.7l2.2,0.4c2.4,0.5,3.5,1.4,3.5,3.4c0,1.7-1.5,3.6-4.8,3.6c-2.1,0-3.7-0.8-4.7-1.7
				c-0.4-0.4-0.4-0.7-0.1-0.9l0.4-0.4c0.3-0.2,0.5-0.1,0.7,0.1c1,0.9,2.1,1.5,3.7,1.5c1.9,0,3-1,3-2c0-1.1-0.8-1.7-2.4-2l-2.1-0.4
				c-2.1-0.4-3.3-1.4-3.3-3.2c0-2.1,2-3.4,4.6-3.4C707.1,425.7,708.7,426.3,709.6,427.2z"/>
		</g>
	</g>
</g>
</svg>
