<svg xmlns="http://www.w3.org/2000/svg" xmlns:xlink="http://www.w3.org/1999/xlink" viewBox="0,0,256,256" width="50px" height="50px"><g fill="#2642af" fill-rule="nonzero" stroke="none" stroke-width="1" stroke-linecap="butt" stroke-linejoin="miter" stroke-miterlimit="10" stroke-dasharray="" stroke-dashoffset="0" font-family="none" font-weight="none" font-size="none" text-anchor="none" style="mix-blend-mode: normal"><g transform="scale(5.12,5.12)"><path d="M25.00391,2.33398c-0.17825,0 -0.35712,0.04758 -0.51562,0.14258l-19.00391,11.41992c-0.301,0.181 -0.48437,0.50642 -0.48437,0.85742v20.46875c0,0.349 0.18052,0.67152 0.47852,0.85352l5,3.05273c0.666,0.407 1.52148,-0.07352 1.52148,-0.85352v-20.16211l13,-7.93945l13,7.93945v20.20117c0,0.78 0.85353,1.26047 1.51953,0.85547l5,-3.03906c0.299,-0.182 0.48047,-0.50547 0.48047,-0.85547v-20.52148c0,-0.351 -0.18337,-0.67642 -0.48437,-0.85742l-18.99805,-11.41992c-0.1585,-0.095 -0.33542,-0.14258 -0.51367,-0.14258zM21.99805,17.17578c-0.17381,0.00013 -0.35303,0.04669 -0.51953,0.14844l-5,3.05469c-0.298,0.182 -0.47852,0.50356 -0.47852,0.85156v20.79297c0,0.351 0.18338,0.67642 0.48438,0.85742l8.00391,4.80859c0.317,0.191 0.7123,0.19 1.0293,0l7.99805,-4.80664c0.301,-0.181 0.48438,-0.50642 0.48438,-0.85742v-20.79492c0,-0.348 -0.18052,-0.67056 -0.47852,-0.85156l-5,-3.05469c-0.666,-0.407 -1.52148,0.07251 -1.52148,0.85352v20.59375l-2,1.22266l-2,-1.22266v-20.59375c0,-0.58575 -0.48052,-1.00233 -1.00195,-1.00195z"></path></g></g></svg>